# xmcd
#
# Track frame offsets:
#	150
#	18016
#	33906
#	50969
#	72182
#	92211
#	109354
#	125994
#	147138
#	168253
#	185841
#	207886
#
# Disc length: 3050 seconds
#
# Revision: 0
# Processed by: cddbd v1.4PL0 Copyright (c) Steve Scherf et al.
# Submitted via: EasyCDDAExtractor 4.5.0.2
#
DISCID=b20be80c
DTITLE=Antwniadhs Xristos - Shmeia twn kairwn
DYEAR=1900
DGENRE=
TTITLE0=Ta synais8hmata mou
TTITLE1=Se miso lepto
TTITLE2=Allh mia nyxta
TTITLE3=S`agapw
TTITLE4=Stamata
TTITLE5=Krypsou agaph mou
TTITLE6=Sygnwmh
TTITLE7=An
TTITLE8=Isws
TTITLE9=Meine mazi mou
TTITLE10=Vhma vhma
TTITLE11=Shmeia twn kairwn
EXTD=KLcanislupus©
EXTT0=
EXTT1=
EXTT2=
EXTT3=
EXTT4=
EXTT5=
EXTT6=
EXTT7=
EXTT8=
EXTT9=
EXTT10=
EXTT11=
PLAYORDER=
